<svg width="48" height="48" viewBox="0 0 48 48" fill="none" xmlns="http://www.w3.org/2000/svg">
<path d="M20.2182 1.6065C19.7021 1.41424 19.1212 1.56283 18.7611 1.97893L1.79822 21.5786C1.46038 21.9689 1.38128 22.5201 1.59607 22.9895C1.81057 23.4589 2.27887 23.7599 2.79495 23.7599H6.57426V45.205C6.57426 45.9331 7.16477 46.5234 7.89262 46.5234H19.7579C20.486 46.5234 21.0762 45.9331 21.0762 45.205V2.84164C21.0762 2.29122 20.7343 1.79876 20.2182 1.6065Z" fill="#B3B356"/>
<path d="M46.1514 5.30689L43.251 1.98544C43.0006 1.6987 42.6386 1.53418 42.2582 1.53418H25.031C24.3032 1.53418 23.7126 2.12442 23.7126 2.85254V9.49544C23.7126 10.2236 24.3032 10.8138 25.031 10.8138H42.2582C42.6386 10.8138 43.0006 10.6493 43.251 10.3628L46.1514 7.04109C46.5849 6.54423 46.5849 5.80375 46.1514 5.30689Z" fill="#B3B356"/>
<path d="M40.6143 13.9019C40.3638 13.6152 40.0018 13.4507 39.6214 13.4507H25.031C24.3032 13.4507 23.7126 14.0409 23.7126 14.769V21.4119C23.7126 22.1403 24.3032 22.7303 25.031 22.7303H39.6214C40.0018 22.7303 40.3638 22.5661 40.6143 22.2793L43.5147 18.9576C43.9481 18.4607 43.9481 17.7203 43.5147 17.2234L40.6143 13.9019Z" fill="#B3B356"/>
<path d="M37.9776 25.8182C37.7271 25.5315 37.3651 25.3669 36.9847 25.3669H25.031C24.3032 25.3669 23.7126 25.9572 23.7126 26.6853V33.3285C23.7126 34.0566 24.3032 34.6468 25.031 34.6468H36.9847C37.3651 34.6468 37.7271 34.4823 37.9776 34.1956L40.878 30.8739C41.3114 30.3773 41.3114 29.6365 40.878 29.1399L37.9776 25.8182Z" fill="#B3B356"/>
<path d="M35.3409 37.6905C35.0904 37.4038 34.7284 37.2393 34.348 37.2393H25.031C24.3032 37.2393 23.7126 37.8295 23.7126 38.5576V45.2008C23.7126 45.9289 24.3032 46.5192 25.031 46.5192H34.348C34.7284 46.5192 35.0904 46.3546 35.3409 46.0679L38.2413 42.7462C38.6747 42.2496 38.6747 41.5088 38.2413 41.0122L35.3409 37.6905Z" fill="#B3B356"/>
</svg>
