<svg width="48" height="48" viewBox="0 0 48 48" fill="none" xmlns="http://www.w3.org/2000/svg">
<path fill-rule="evenodd" clip-rule="evenodd" d="M20.0275 24.7459V12.6429H16.7875C16.531 12.6429 16.3082 12.5012 16.1935 12.2649C16.0787 12.0422 16.1192 11.7722 16.2812 11.5764L23.5038 2.56503C23.6253 2.40977 23.8143 2.32202 24.0169 2.32202C24.2261 2.32202 24.4016 2.41652 24.5366 2.56503L31.7592 11.5764C31.9212 11.7722 31.9482 12.0422 31.847 12.2649C31.7322 12.4944 31.5095 12.6429 31.253 12.6429H28.0129V24.7391L27.9994 24.7459L27.4729 25.1576L27.3852 24.4894C27.2704 23.5309 26.4536 22.8153 25.4884 22.8153H22.5386C21.5733 22.8153 20.7633 23.5309 20.6418 24.4894L20.5608 25.1576L20.0275 24.7459Z" fill="#B3B356"/>
<path fill-rule="evenodd" clip-rule="evenodd" d="M24.0102 30.1865C22.1809 30.1865 20.7026 31.6783 20.7026 33.4941C20.7026 35.3234 22.1944 36.8084 24.0102 36.8084C25.826 36.8084 27.3177 35.3234 27.3177 33.4941C27.3177 31.6783 25.8395 30.1865 24.0102 30.1865Z" fill="#B3B356"/>
<path fill-rule="evenodd" clip-rule="evenodd" d="M25.4884 42.9307H22.5386C22.2079 42.9307 21.9311 42.6877 21.8906 42.3569L21.5801 39.8931C21.4586 39.8459 21.3506 39.7986 21.2291 39.7446L19.2581 41.2634C18.9948 41.4659 18.6303 41.4389 18.3941 41.2094L16.315 39.1169C16.0788 38.8806 16.0653 38.5161 16.261 38.2529L17.7798 36.2953C17.719 36.1738 17.6718 36.0523 17.6245 35.9376L15.1608 35.6271C14.8368 35.5933 14.5938 35.3098 14.5938 34.9858V32.0293C14.5938 31.7053 14.8368 31.4218 15.1608 31.388L17.6245 31.064C17.6718 30.9425 17.719 30.8345 17.7798 30.713L16.261 28.742C16.0653 28.4787 16.0788 28.1142 16.315 27.8779L18.3941 25.7989C18.6303 25.5627 18.9948 25.5492 19.2581 25.7449L21.2291 27.2637C21.3371 27.2164 21.4586 27.1557 21.5801 27.1084L21.8906 24.6446C21.9311 24.3206 22.2079 24.0776 22.5386 24.0776H25.4884C25.8192 24.0776 26.1027 24.3206 26.1364 24.6446L26.4469 27.1084C26.5684 27.1557 26.6899 27.2029 26.8047 27.2637L28.769 25.7449C29.0322 25.5357 29.3967 25.5627 29.633 25.7989L31.712 27.8779C31.9483 28.1142 31.9685 28.4787 31.766 28.742L30.254 30.713C30.308 30.8345 30.3552 30.9425 30.4025 31.064L32.8663 31.388C33.197 31.4353 33.44 31.7053 33.44 32.0293V34.9858C33.44 35.3098 33.197 35.5933 32.8663 35.6271L30.4025 35.9376C30.3552 36.0591 30.308 36.1738 30.254 36.2953L31.766 38.2529C31.9685 38.5161 31.9483 38.8806 31.712 39.1169L29.633 41.2162C29.3967 41.4524 29.0322 41.4794 28.769 41.2702L26.8047 39.7514C26.6832 39.8121 26.5684 39.8594 26.4469 39.9066L26.1364 42.3704C26.1027 42.6877 25.8192 42.9307 25.4884 42.9307ZM24.0101 38.1314C21.4586 38.1314 19.3863 36.0523 19.3863 33.5008C19.3863 30.956 21.4586 28.8837 24.0101 28.8837C26.5617 28.8837 28.6272 30.956 28.6272 33.5008C28.6272 36.0523 26.5617 38.1314 24.0101 38.1314Z" fill="#B3B356"/>
<path fill-rule="evenodd" clip-rule="evenodd" d="M5.47439 27.5067V15.397H2.22084C1.97108 15.397 1.74158 15.2552 1.63358 15.0257C1.51883 14.7962 1.55258 14.5262 1.70783 14.3305L8.93044 5.31234C9.05195 5.15709 9.24095 5.06934 9.44345 5.06934C9.6527 5.06934 9.82821 5.16384 9.96321 5.31234L17.1858 14.3305C17.3478 14.5262 17.3748 14.7962 17.2601 15.0257C17.1521 15.2485 16.9226 15.397 16.6728 15.397H13.4395V27.4864L12.9063 27.8982L12.8253 27.2367C12.7038 26.2782 11.8937 25.5627 10.9285 25.5627H7.97193C7.01341 25.5627 6.2034 26.2782 6.0819 27.2299L5.99415 27.9049L5.47439 27.5067Z" fill="#B3B356"/>
<path fill-rule="evenodd" clip-rule="evenodd" d="M9.44342 32.9338C7.62089 32.9338 6.13586 34.4189 6.13586 36.2414C6.13586 38.0639 7.62764 39.5557 9.44342 39.5557C11.2727 39.5557 12.7645 38.0639 12.7645 36.2414C12.7645 34.4189 11.2727 32.9338 9.44342 32.9338Z" fill="#B3B356"/>
<path fill-rule="evenodd" clip-rule="evenodd" d="M10.9284 45.6779H7.97189C7.64788 45.6779 7.36438 45.4349 7.33063 45.1041L7.00662 42.6404C6.88512 42.5931 6.76362 42.5459 6.65562 42.4919L4.68459 44.0106C4.42133 44.2131 4.05683 44.1861 3.82057 43.9499L1.74154 41.8708C1.51204 41.6346 1.49179 41.2701 1.68754 41.0068L3.20631 39.0426C3.14556 38.9278 3.10506 38.8063 3.05781 38.6848L0.587273 38.3675C0.263267 38.3203 0.0202637 38.0503 0.0202637 37.7195V34.7765C0.0202637 34.4525 0.263267 34.169 0.587273 34.1285L3.05781 33.8112C3.10506 33.6897 3.14556 33.5682 3.20631 33.4535L1.68754 31.4892C1.47829 31.2259 1.51204 30.8614 1.74154 30.6252L3.82057 28.5461C4.05683 28.3099 4.42133 28.2896 4.68459 28.4921L6.65562 30.0042C6.76362 29.9502 6.88512 29.9029 7.00662 29.8557L7.33063 27.3919C7.37788 27.0679 7.64788 26.8181 7.97189 26.8181H10.9284C11.2524 26.8181 11.5359 27.0679 11.5764 27.3919L11.8802 29.8489C12.0017 29.8962 12.13 29.9434 12.2515 29.9974L14.2157 28.4786C14.4047 28.3301 14.6545 28.3031 14.8637 28.3909C14.8772 28.7891 15.0055 29.1807 15.262 29.5114L15.6738 30.0514L14.9987 30.1324C14.047 30.2607 13.3315 31.0707 13.3315 32.0292V33.737C12.508 32.468 11.0702 31.6309 9.44341 31.6309C6.89862 31.6309 4.82634 33.6965 4.82634 36.248C4.82634 38.7996 6.89862 40.8786 9.44341 40.8786C11.9207 40.8786 13.9457 38.9278 14.0672 36.491C14.3305 36.7003 14.6545 36.8353 15.0055 36.8825L15.667 36.9635L15.262 37.4833C14.6747 38.246 14.7422 39.3261 15.424 40.0078L17.2128 41.8033C17.1925 41.8303 17.1723 41.8573 17.152 41.8843L15.0797 43.9634C14.8435 44.1929 14.479 44.2131 14.2157 44.0174L12.2515 42.4986C12.13 42.5526 12.0152 42.5999 11.8802 42.6471L11.5764 45.1041C11.5359 45.4349 11.2524 45.6779 10.9284 45.6779Z" fill="#B3B356"/>
<path fill-rule="evenodd" clip-rule="evenodd" d="M34.5876 27.5134V15.397H31.3543C31.1045 15.397 30.8818 15.2552 30.767 15.0257C30.6523 14.7962 30.6928 14.5262 30.8413 14.3305L38.0639 5.31234C38.1921 5.15709 38.3744 5.06934 38.5837 5.06934C38.7862 5.06934 38.9684 5.16384 39.0967 5.31234L46.326 14.3305C46.4813 14.5262 46.5083 14.7962 46.4003 15.0257C46.2855 15.2485 46.0628 15.397 45.8063 15.397H42.5662V27.4797C42.5595 27.4797 42.5527 27.4864 42.546 27.4932L42.006 27.9049L41.925 27.2299C41.7967 26.2782 40.9867 25.5627 40.0282 25.5627H37.0716C36.1131 25.5627 35.2964 26.2782 35.1748 27.2367L35.0938 27.8982L34.5876 27.5134Z" fill="#B3B356"/>
<path fill-rule="evenodd" clip-rule="evenodd" d="M38.5702 32.9338C36.7476 32.9338 35.2559 34.4189 35.2559 36.2414C35.2559 38.0639 36.7476 39.5557 38.5702 39.5557C40.3994 39.5557 41.8845 38.0639 41.8845 36.2414C41.8845 34.4189 40.3994 32.9338 38.5702 32.9338Z" fill="#B3B356"/>
<path fill-rule="evenodd" clip-rule="evenodd" d="M40.0417 45.6779H37.0919C36.7611 45.6779 36.4844 45.4349 36.4439 45.1041L36.1334 42.6471C36.0119 42.5999 35.8904 42.5526 35.7689 42.4986L33.8046 44.0174C33.5413 44.2266 33.1768 44.1929 32.9406 43.9634L30.848 41.8843C30.8345 41.8641 30.8143 41.8438 30.8008 41.8236L32.6098 40.0011C33.2848 39.3193 33.3523 38.246 32.7651 37.4833L32.3601 36.9635L33.0216 36.8825C33.3726 36.8353 33.6898 36.7003 33.9531 36.4978C34.0813 38.9346 36.1064 40.8786 38.5702 40.8786C41.1217 40.8786 43.194 38.7996 43.194 36.248C43.194 33.6965 41.1217 31.6309 38.5702 31.6309C36.9569 31.6309 35.5259 32.4612 34.6956 33.7235V32.0292C34.6956 31.0707 33.9801 30.2607 33.0283 30.1324L32.3533 30.0514L32.7651 29.5114C33.0283 29.1739 33.1566 28.7824 33.1633 28.3841C33.3658 28.3099 33.6021 28.3436 33.7843 28.4786L35.7554 29.9974C35.8769 29.9434 35.9849 29.8962 36.1199 29.8489L36.4236 27.3919C36.4641 27.0679 36.7476 26.8181 37.0716 26.8181H40.0282C40.3522 26.8181 40.6357 27.0679 40.6694 27.3919L40.9934 29.8557C41.1149 29.9029 41.2364 29.9502 41.3444 30.0042L43.3155 28.4921C43.5787 28.2829 43.9432 28.3099 44.1795 28.5461L46.2585 30.6252C46.4948 30.8614 46.5083 31.2259 46.3125 31.4892L44.7937 33.4535C44.8545 33.5682 44.9018 33.6897 44.949 33.8112L47.4128 34.1285C47.7368 34.1757 47.9798 34.4525 47.9798 34.7765V37.7263C47.9798 38.057 47.7368 38.3405 47.4128 38.3743L44.949 38.6916C44.9018 38.8198 44.8545 38.9413 44.7937 39.0493L46.3125 41.0203C46.5218 41.2836 46.4948 41.6481 46.2585 41.8843L44.193 43.9634C43.9635 44.1929 43.599 44.2131 43.3357 44.0174L41.3647 42.4986C41.2567 42.5526 41.1284 42.5999 41.0069 42.6471L40.6897 45.1176C40.6559 45.4349 40.3724 45.6779 40.0417 45.6779Z" fill="#B3B356"/>
</svg>
