<svg width="48" height="48" viewBox="0 0 48 48" fill="none" xmlns="http://www.w3.org/2000/svg">
<path d="M11.6 12.2C9.99994 10.6 3.19997 10.2001 0.999938 10C0.799969 10 0.599906 10 0.399937 10.2C0.199969 10.4 0 10.8001 0 11V29C0 29.6 0.400031 30.0001 1.00003 30.0001H7.00003C7.40006 30.0001 7.8 29.8001 8.00006 29.4001C8.00006 28.8001 11.6001 18.2 12.0001 13.0001C12 12.8 12 12.4001 11.6 12.2Z" fill="#B3B356"/>
<path d="M33 16.9999C31 16.3999 29.2 15.6 27.6 15C24 13.3999 22.4 14.2 19.2 17.4C17.8 18.7999 16.8 20.8 17 21.6C17 21.7999 17 21.7999 17.4 22C18.4 22.4 19.8 22.6 21.2 20.4C21.3999 20.2 21.6 19.9999 21.9999 19.9999C22.5999 19.9999 22.7999 19.8 23.3999 19.5999C23.7999 19.3999 24.1999 19.1999 24.7999 18.9999C24.9998 18.9999 24.9998 18.9999 25.1999 18.9999C25.3999 18.9999 25.7999 19.1999 25.9999 19.1999C27 20.2 28.8 21.6 30.6 23.2C33.4 25.4 36.2 27.8 37.6 29.6H37.8C36.4 25.6 34 18.7999 33 16.9999Z" fill="#B3B356"/>
<path d="M46.9999 12C39.1999 12 34.7999 14 34.5999 14C34.3999 14.1999 34.1998 14.4 33.9999 14.6C33.9999 14.7999 33.9999 15.2 34.1998 15.3999C35.3998 17.3999 39.3999 28.4 39.9999 31.1999C40.1998 31.5999 40.5999 31.9999 40.9999 31.9999H46.9999C47.5999 31.9999 47.9999 31.5998 47.9999 30.9998V12.9998C47.9999 12.4 47.5999 12 46.9999 12Z" fill="#B3B356"/>
<path d="M36.1999 31.6C35.4 29.8 31.9999 27.2 28.9999 24.8C27.4 23.4 25.8 22.2 24.6 21.1999C24.4 21.3999 24 21.3999 24 21.6C23.4 21.7999 23.2 22 22.3999 22C20.8 24 18.7999 24.7999 16.6 24C15.6 23.8 15 22.9999 14.8 22.2C14.4 20.2 16.2 17.4 17.6 16H13.6C12.8 20 11.4 25.2 10.4 28C11.2 28.8 12.0001 29.8 12.6001 30.2C16.4 33.4 20.8001 36.6001 21.6001 37.2001C22.2001 37.6001 23.4001 38 24.0001 38C24.2 38 24.4001 38 24.6001 38L21.4 34.8C21 34.3999 21 33.7999 21.4 33.4C21.8 33.0001 22.4 33 22.8 33.4L26.8 37.4C27.2 37.8001 27.6 37.6 28 37.6C28.6 37.4 28.8 37 29 36.4L24.4 31.8C24 31.3999 24 30.7999 24.4 30.4C24.8 30.0001 25.4 30 25.8 30.4L30.7999 35.4C30.9999 35.5999 31.8 35.5999 32.4 35.4C32.5999 35.2 33 34.9999 33.1999 34.6L27.6 28.9999C27.1999 28.5999 27.1999 27.9999 27.6 27.6C28 27.2 28.6 27.1999 28.9999 27.6L34.8 33.4C35.2 33.6 35.5999 33.4 36 33.2C36.1999 33 36.6 32.4 36.1999 31.6Z" fill="#B3B356"/>
</svg>
