<svg width="48" height="48" viewBox="0 0 48 48" fill="none" xmlns="http://www.w3.org/2000/svg">
<g clip-path="url(#clip0_238_84)">
<path d="M47.016 0.00589828C37.646 -0.162102 26.96 4.7359 20.196 12.3339C13.732 12.4559 7.43802 15.1059 2.80402 19.7399C2.53402 20.0059 2.43802 20.4039 2.55602 20.7639C2.67602 21.1259 2.98802 21.3879 3.36402 21.4419L11.072 22.5459L10.12 23.6119C9.76602 24.0079 9.78402 24.6099 10.16 24.9859L23.014 37.8399C23.208 38.0339 23.464 38.1319 23.722 38.1319C23.96 38.1319 24.198 38.0479 24.388 37.8779L25.454 36.9259L26.558 44.6339C26.612 45.0099 26.908 45.2859 27.266 45.4059C27.358 45.4359 27.454 45.4499 27.552 45.4499C27.836 45.4499 28.126 45.3259 28.326 45.1279C32.896 40.5579 35.546 34.2639 35.668 27.7999C43.274 21.0219 48.212 10.3399 47.994 0.981898C47.98 0.449898 47.55 0.0198983 47.016 0.00589828ZM37.8 17.2699C36.826 18.2439 35.546 18.7319 34.264 18.7319C32.982 18.7319 31.702 18.2439 30.728 17.2699C28.78 15.3199 28.78 12.1479 30.728 10.1979C32.678 8.2479 35.85 8.2479 37.8 10.1979C39.75 12.1479 39.75 15.3219 37.8 17.2699Z" fill="#B3B356"/>
<path d="M5.44799 33.8099C3.30799 35.9499 0.369993 45.6179 0.0419927 46.7119C-0.0640073 47.0639 0.0339927 47.4459 0.291993 47.7059C0.483993 47.8979 0.737993 47.9999 0.999993 47.9999C1.09599 47.9999 1.19199 47.9859 1.28799 47.9579C2.38199 47.6299 12.05 44.6919 14.19 42.5519C16.6 40.1419 16.6 36.2199 14.19 33.8099C11.778 31.3999 7.85799 31.4019 5.44799 33.8099Z" fill="#B3B356"/>
</g>
<defs>
<clipPath id="clip0_238_84">
<rect width="48" height="48" fill="white"/>
</clipPath>
</defs>
</svg>
